<?xml version="1.0" encoding="utf-8"?>
<svg version="1.1" xmlns:xlink="http://www.w3.org/1999/xlink" width="114px" height="30px" xmlns="http://www.w3.org/2000/svg">
  <defs>
    <mask fill="white" id="clip9">
      <path d="M 0 24  L 0 6  C 0 2.63999999999999  2.63999999999999 0  6 0  L 68.3684210526317 0  L 108 0  C 111.36 0  114 2.63999999999999  114 6  L 114 24  C 114 27.36  111.36 30  108 30  L 6 30  C 2.63999999999999 30  0 27.36  0 24  Z " fill-rule="evenodd" />
    </mask>
  </defs>
  <g transform="matrix(1 0 0 1 -971 -132 )">
    <path d="M 0 24  L 0 6  C 0 2.63999999999999  2.63999999999999 0  6 0  L 68.3684210526317 0  L 108 0  C 111.36 0  114 2.63999999999999  114 6  L 114 24  C 114 27.36  111.36 30  108 30  L 6 30  C 2.63999999999999 30  0 27.36  0 24  Z " fill-rule="nonzero" fill="#ffffff" stroke="none" transform="matrix(1 0 0 1 971 132 )" />
    <path d="M 0 24  L 0 6  C 0 2.63999999999999  2.63999999999999 0  6 0  L 68.3684210526317 0  L 108 0  C 111.36 0  114 2.63999999999999  114 6  L 114 24  C 114 27.36  111.36 30  108 30  L 6 30  C 2.63999999999999 30  0 27.36  0 24  Z " stroke-width="2" stroke="#536570" fill="none" transform="matrix(1 0 0 1 971 132 )" mask="url(#clip9)" />
  </g>
</svg>