<?xml version="1.0" encoding="utf-8"?>
<svg version="1.1" xmlns:xlink="http://www.w3.org/1999/xlink" width="7px" height="7px" xmlns="http://www.w3.org/2000/svg">
  <g transform="matrix(1 0 0 1 -439 -72 )">
    <path d="M 5 1.5  L 6.625 1.5  C 6.72916666666667 1.5  6.81770833333333 1.53645833333333  6.890625 1.609375  C 6.96354166666667 1.68229166666667  7 1.77083333333333  7 1.875  L 7 6.625  C 7 6.72916666666667  6.96354166666667 6.81770833333333  6.890625 6.890625  C 6.81770833333333 6.96354166666667  6.72916666666667 7  6.625 7  L 2.875 7  C 2.77083333333333 7  2.68229166666667 6.96354166666667  2.609375 6.890625  C 2.53645833333333 6.81770833333333  2.5 6.72916666666667  2.5 6.625  L 2.5 5.5  L 0.375 5.5  C 0.270833333333333 5.5  0.182291666666667 5.46354166666667  0.109375 5.390625  C 0.0364583333333333 5.31770833333333  0 5.22916666666667  0 5.125  L 0 2.5  C 0 2.39583333333333  0.0260416666666667 2.28125  0.078125 2.15625  C 0.130208333333333 2.03125  0.192708333333333 1.93229166666667  0.265625 1.859375  L 1.859375 0.265625  C 1.93229166666667 0.192708333333333  2.03125 0.130208333333333  2.15625 0.0781250000000001  C 2.28125 0.026041666666667  2.39583333333333 0  2.5 0  L 4.125 0  C 4.22916666666667 0  4.31770833333333 0.0364583333333336  4.390625 0.109375  C 4.46354166666667 0.182291666666666  4.5 0.270833333333333  4.5 0.375  L 4.5 1.65625  C 4.67708333333333 1.55208333333333  4.84375 1.5  5 1.5  Z M 4.5 3.5  L 4.5 2.33203125  L 3.33203125 3.5  L 4.5 3.5  Z M 2 2  L 2 0.83203125  L 0.83203125 2  L 2 2  Z M 2.578125 3.65625  C 2.63020833333333 3.53125  2.69270833333333 3.43229166666667  2.765625 3.359375  L 4 2.125  L 4 0.5  L 2.5 0.5  L 2.5 2.125  C 2.5 2.22916666666667  2.46354166666667 2.31770833333333  2.390625 2.390625  C 2.31770833333333 2.46354166666667  2.22916666666667 2.5  2.125 2.5  L 0.5 2.5  L 0.5 5  L 2.5 5  L 2.5 4  C 2.5 3.89583333333333  2.52604166666667 3.78125  2.578125 3.65625  Z M 3 6.5  L 6.5 6.5  L 6.5 2  L 5 2  L 5 3.625  C 5 3.72916666666667  4.96354166666667 3.81770833333333  4.890625 3.890625  C 4.81770833333333 3.96354166666667  4.72916666666667 4  4.625 4  L 3 4  L 3 6.5  Z " fill-rule="nonzero" fill="#000000" stroke="none" transform="matrix(1 0 0 1 439 72 )" />
  </g>
</svg>