<?xml version="1.0" encoding="utf-8"?>
<svg version="1.1" xmlns:xlink="http://www.w3.org/1999/xlink" width="9px" height="7px" xmlns="http://www.w3.org/2000/svg">
  <g transform="matrix(1 0 0 1 -429 -72 )">
    <path d="M 4.19730941704036 5.25  L 4.47982062780269 5.25  L 5.06502242152466 4.67329545454545  L 4.29820627802691 3.91761363636364  L 3.71300448430493 4.49431818181818  L 3.71300448430493 4.77272727272727  L 4.19730941704036 4.77272727272727  L 4.19730941704036 5.25  Z M 6.6945067264574 1.83451704545455  C 6.75168161434978 1.77817234848485  6.75336322869955 1.72348484848485  6.69955156950673 1.67045454545455  C 6.6457399103139 1.61742424242424  6.5902466367713 1.61908143939394  6.53307174887892 1.67542613636364  L 4.76737668161435 3.41548295454545  C 4.71020179372197 3.47182765151515  4.7085201793722 3.52651515151515  4.76233183856502 3.57954545454545  C 4.81614349775785 3.63257575757576  4.87163677130045 3.63091856060606  4.92881165919283 3.57457386363636  L 6.6945067264574 1.83451704545455  Z M 7.00224215246637 4.47940340909091  C 7.0695067264574 4.50591856060606  7.10313901345291 4.55397727272727  7.10313901345291 4.62357954545455  L 7.10313901345291 5.56818181818182  C 7.10313901345291 5.9625946969697  6.96104260089686 6.29983428030303  6.67684977578475 6.57990056818182  C 6.39265695067265 6.85996685606061  6.05044843049327 7  5.65022421524664 7  L 1.45291479820628 7  C 1.05269058295964 7  0.710482062780269 6.85996685606061  0.426289237668161 6.57990056818182  C 0.142096412556054 6.29983428030303  0 5.9625946969697  0 5.56818181818182  L 0 1.43181818181818  C 0 1.0374053030303  0.142096412556054 0.700165719696969  0.426289237668161 0.420099431818182  C 0.710482062780269 0.140033143939393  1.05269058295964 0  1.45291479820628 0  L 5.65022421524664 0  C 5.86210762331839 0  6.05885650224215 0.0414299242424239  6.24047085201794 0.124289772727272  C 6.29091928251121 0.14749053030303  6.32118834080717 0.18560606060606  6.33127802690583 0.238636363636363  C 6.34136771300448 0.29498106060606  6.3262331838565 0.343039772727272  6.28587443946188 0.3828125  L 6.03867713004484 0.626420454545454  C 5.99159192825112 0.672821969696969  5.9377802690583 0.686079545454546  5.87724215246637 0.666193181818182  C 5.79988789237668 0.646306818181818  5.72421524663677 0.636363636363637  5.65022421524664 0.636363636363637  L 1.45291479820628 0.636363636363637  C 1.23094170403587 0.636363636363637  1.04091928251121 0.714251893939393  0.882847533632287 0.870028409090909  C 0.724775784753363 1.02580492424242  0.645739910313901 1.21306818181818  0.645739910313901 1.43181818181818  L 0.645739910313901 5.56818181818182  C 0.645739910313901 5.78693181818182  0.724775784753363 5.97419507575757  0.882847533632287 6.12997159090909  C 1.04091928251121 6.28574810606061  1.23094170403587 6.36363636363636  1.45291479820628 6.36363636363636  L 5.65022421524664 6.36363636363636  C 5.87219730941704 6.36363636363636  6.0622197309417 6.28574810606061  6.22029147982063 6.12997159090909  C 6.37836322869955 5.97419507575757  6.45739910313901 5.78693181818182  6.45739910313901 5.56818181818182  L 6.45739910313901 4.94176136363636  C 6.45739910313901 4.89867424242424  6.472533632287 4.86221590909091  6.50280269058296 4.83238636363636  L 6.82567264573991 4.51420454545455  C 6.87612107623318 4.46448863636364  6.93497757847534 4.45288825757576  7.00224215246637 4.47940340909091  Z M 3.22869955156951 4.29545454545455  L 6.61883408071749 0.954545454545454  L 8.07174887892377 2.38636363636364  L 4.68161434977578 5.72727272727273  L 3.22869955156951 5.72727272727273  L 3.22869955156951 4.29545454545455  Z M 9 1.27272727272727  C 9 1.40530303030303  8.95291479820628 1.51799242424242  8.85874439461883 1.61079545454545  L 8.39461883408072 2.06818181818182  L 6.94170403587444 0.636363636363637  L 7.40582959641256 0.178977272727272  C 7.5 0.0861742424242418  7.61434977578475 0.0397727272727276  7.74887892376682 0.0397727272727276  C 7.88340807174888 0.0397727272727276  7.99775784753363 0.0861742424242418  8.09192825112108 0.178977272727272  L 8.85874439461883 0.934659090909091  C 8.95291479820628 1.02746212121212  9 1.14015151515151  9 1.27272727272727  Z " fill-rule="nonzero" fill="#000000" stroke="none" transform="matrix(1 0 0 1 429 72 )" />
  </g>
</svg>